G75*
%MOIN*%
%OFA0B0*%
%FSLAX25Y25*%
%IPPOS*%
%LPD*%
%AMOC8*
5,1,8,0,0,1.08239X$1,22.5*
%
%ADD10C,0.00000*%
%ADD11C,0.00900*%
D10*
X0001000Y0001000D02*
X0001000Y0139711D01*
X0078451Y0139711D01*
X0078451Y0001000D01*
X0001000Y0001000D01*
D11*
X0031450Y0007700D02*
X0031450Y0010753D01*
X0032468Y0011770D01*
X0033485Y0011770D01*
X0034503Y0010753D01*
X0034503Y0007700D01*
X0034503Y0010753D02*
X0035520Y0011770D01*
X0036538Y0011770D01*
X0037555Y0010753D01*
X0037555Y0007700D01*
X0031450Y0007700D01*
X0032468Y0014145D02*
X0033485Y0015163D01*
X0033485Y0018216D01*
X0034503Y0018216D02*
X0031450Y0018216D01*
X0031450Y0015163D01*
X0032468Y0014145D01*
X0035520Y0017198D02*
X0034503Y0018216D01*
X0035520Y0017198D02*
X0035520Y0015163D01*
X0037555Y0020591D02*
X0037555Y0021609D01*
X0031450Y0021609D01*
X0031450Y0022626D02*
X0031450Y0020591D01*
X0032468Y0024888D02*
X0033485Y0025906D01*
X0033485Y0028958D01*
X0034503Y0028958D02*
X0031450Y0028958D01*
X0031450Y0025906D01*
X0032468Y0024888D01*
X0035520Y0027941D02*
X0034503Y0028958D01*
X0035520Y0027941D02*
X0035520Y0025906D01*
X0035520Y0031333D02*
X0035520Y0034386D01*
X0034503Y0035404D01*
X0031450Y0035404D01*
X0032468Y0037779D02*
X0031450Y0038797D01*
X0031450Y0041849D01*
X0032468Y0044224D02*
X0031450Y0045242D01*
X0031450Y0047277D01*
X0032468Y0044224D02*
X0034503Y0044224D01*
X0035520Y0045242D01*
X0035520Y0047277D01*
X0034503Y0048295D01*
X0033485Y0048295D01*
X0033485Y0044224D01*
X0035520Y0041849D02*
X0035520Y0038797D01*
X0034503Y0037779D01*
X0032468Y0037779D01*
X0031450Y0031333D02*
X0035520Y0031333D01*
X0041450Y0032232D02*
X0045520Y0032232D01*
X0044503Y0029857D02*
X0043485Y0029857D01*
X0043485Y0025786D01*
X0042468Y0025786D02*
X0044503Y0025786D01*
X0045520Y0026804D01*
X0045520Y0028839D01*
X0044503Y0029857D01*
X0043485Y0032232D02*
X0045520Y0034267D01*
X0045520Y0035285D01*
X0044503Y0037603D02*
X0042468Y0037603D01*
X0041450Y0038621D01*
X0041450Y0041673D01*
X0042468Y0044049D02*
X0041450Y0045066D01*
X0041450Y0048119D01*
X0044503Y0048119D01*
X0045520Y0047101D01*
X0045520Y0045066D01*
X0045520Y0041673D02*
X0045520Y0038621D01*
X0044503Y0037603D01*
X0042468Y0044049D02*
X0043485Y0045066D01*
X0043485Y0048119D01*
X0041450Y0050494D02*
X0041450Y0053547D01*
X0042468Y0054564D01*
X0044503Y0054564D01*
X0045520Y0053547D01*
X0045520Y0050494D01*
X0039415Y0050494D01*
X0035520Y0050670D02*
X0031450Y0050670D01*
X0033485Y0050670D02*
X0035520Y0052705D01*
X0035520Y0053723D01*
X0041450Y0057957D02*
X0042468Y0056940D01*
X0043485Y0057957D01*
X0043485Y0061010D01*
X0042468Y0063385D02*
X0041450Y0064403D01*
X0041450Y0067455D01*
X0041450Y0069831D02*
X0041450Y0071866D01*
X0041450Y0070848D02*
X0045520Y0070848D01*
X0045520Y0069831D01*
X0047555Y0070848D02*
X0048573Y0070848D01*
X0050034Y0070520D02*
X0051052Y0069503D01*
X0050034Y0068485D01*
X0050034Y0067468D01*
X0051052Y0066450D01*
X0053087Y0066450D01*
X0054105Y0067468D01*
X0056480Y0068485D02*
X0056480Y0072555D01*
X0054105Y0071538D02*
X0053087Y0072555D01*
X0051052Y0072555D01*
X0050034Y0071538D01*
X0050034Y0070520D01*
X0051052Y0069503D02*
X0052069Y0069503D01*
X0056480Y0068485D02*
X0058515Y0066450D01*
X0060550Y0068485D01*
X0060550Y0072555D01*
X0059765Y0086450D02*
X0057730Y0088485D01*
X0057730Y0092555D01*
X0055355Y0091538D02*
X0054337Y0092555D01*
X0052302Y0092555D01*
X0051284Y0091538D01*
X0051284Y0090520D01*
X0055355Y0086450D01*
X0051284Y0086450D01*
X0045520Y0086905D02*
X0045520Y0087923D01*
X0045520Y0086905D02*
X0043485Y0084870D01*
X0042468Y0082495D02*
X0044503Y0082495D01*
X0045520Y0081477D01*
X0045520Y0079442D01*
X0044503Y0078425D01*
X0042468Y0078425D01*
X0041450Y0079442D01*
X0041450Y0081477D01*
X0042468Y0082495D01*
X0041450Y0084870D02*
X0045520Y0084870D01*
X0045520Y0076163D02*
X0045520Y0074128D01*
X0046538Y0075145D02*
X0042468Y0075145D01*
X0041450Y0076163D01*
X0045520Y0067455D02*
X0045520Y0064403D01*
X0044503Y0063385D01*
X0042468Y0063385D01*
X0041450Y0061010D02*
X0041450Y0057957D01*
X0041450Y0061010D02*
X0044503Y0061010D01*
X0045520Y0059992D01*
X0045520Y0057957D01*
X0050034Y0050753D02*
X0054105Y0050753D01*
X0051052Y0053805D01*
X0051052Y0047700D01*
X0056480Y0049735D02*
X0056480Y0053805D01*
X0056480Y0049735D02*
X0058515Y0047700D01*
X0060550Y0049735D01*
X0060550Y0053805D01*
X0060550Y0032555D02*
X0060550Y0028485D01*
X0058515Y0026450D01*
X0056480Y0028485D01*
X0056480Y0032555D01*
X0054105Y0032555D02*
X0054105Y0029503D01*
X0052069Y0030520D01*
X0051052Y0030520D01*
X0050034Y0029503D01*
X0050034Y0027468D01*
X0051052Y0026450D01*
X0053087Y0026450D01*
X0054105Y0027468D01*
X0054105Y0032555D02*
X0050034Y0032555D01*
X0044503Y0023411D02*
X0042468Y0023411D01*
X0041450Y0022394D01*
X0041450Y0019341D01*
X0041450Y0016966D02*
X0045520Y0016966D01*
X0045520Y0019341D02*
X0045520Y0022394D01*
X0044503Y0023411D01*
X0042468Y0025786D02*
X0041450Y0026804D01*
X0041450Y0028839D01*
X0039415Y0019341D02*
X0045520Y0019341D01*
X0045520Y0012895D02*
X0042468Y0012895D01*
X0041450Y0013913D01*
X0041450Y0016966D01*
X0042468Y0010520D02*
X0041450Y0009503D01*
X0041450Y0007468D01*
X0042468Y0006450D01*
X0044503Y0007468D02*
X0044503Y0009503D01*
X0043485Y0010520D01*
X0042468Y0010520D01*
X0044503Y0007468D02*
X0045520Y0006450D01*
X0046538Y0006450D01*
X0047555Y0007468D01*
X0047555Y0009503D01*
X0046538Y0010520D01*
X0051284Y0012003D02*
X0055355Y0012003D01*
X0057730Y0010985D02*
X0057730Y0015055D01*
X0057730Y0010985D02*
X0059765Y0008950D01*
X0061800Y0010985D01*
X0061800Y0015055D01*
X0059765Y0086450D02*
X0061800Y0088485D01*
X0061800Y0092555D01*
X0059765Y0107700D02*
X0057730Y0109735D01*
X0057730Y0113805D01*
X0055355Y0111770D02*
X0053319Y0113805D01*
X0053319Y0107700D01*
X0051284Y0107700D02*
X0055355Y0107700D01*
X0059765Y0107700D02*
X0061800Y0109735D01*
X0061800Y0113805D01*
X0057265Y0127700D02*
X0055230Y0129735D01*
X0055230Y0133805D01*
X0052855Y0130753D02*
X0048784Y0130753D01*
X0050819Y0132788D02*
X0050819Y0128718D01*
X0057265Y0127700D02*
X0059300Y0129735D01*
X0059300Y0133805D01*
M02*
