G75*
%MOIN*%
%OFA0B0*%
%FSLAX25Y25*%
%IPPOS*%
%LPD*%
%AMOC8*
5,1,8,0,0,1.08239X$1,22.5*
%
%ADD10R,0.05906X0.02559*%
%ADD11R,0.10000X0.10000*%
%ADD12R,0.04362X0.04362*%
%ADD13R,0.05906X0.02165*%
%ADD14OC8,0.25400*%
%ADD15OC8,0.04362*%
%ADD16C,0.02400*%
%ADD17C,0.02978*%
%ADD18C,0.00300*%
D10*
X0013431Y0033500D03*
X0013431Y0038500D03*
X0013431Y0043500D03*
X0013431Y0048500D03*
X0013431Y0053500D03*
X0013431Y0058500D03*
X0013431Y0063500D03*
X0013431Y0068500D03*
X0036069Y0068500D03*
X0036069Y0063500D03*
X0036069Y0058500D03*
X0036069Y0053500D03*
X0036069Y0048500D03*
X0036069Y0043500D03*
X0036069Y0038500D03*
X0036069Y0033500D03*
D11*
X0069750Y0031000D03*
X0069750Y0011000D03*
X0069750Y0051000D03*
X0069750Y0071000D03*
X0069750Y0091000D03*
X0069750Y0111000D03*
X0069750Y0131000D03*
D12*
X0067250Y0128500D03*
X0067250Y0133500D03*
X0072250Y0133500D03*
X0072250Y0128500D03*
X0072250Y0113500D03*
X0072250Y0108500D03*
X0067250Y0108500D03*
X0067250Y0113500D03*
X0067250Y0093500D03*
X0067250Y0088500D03*
X0072250Y0088500D03*
X0072250Y0093500D03*
X0072250Y0073500D03*
X0072250Y0068500D03*
X0067250Y0068500D03*
X0067250Y0073500D03*
X0067250Y0053500D03*
X0067250Y0048500D03*
X0072250Y0048500D03*
X0072250Y0053500D03*
X0072250Y0033500D03*
X0072250Y0028500D03*
X0067250Y0028500D03*
X0067250Y0033500D03*
X0067250Y0013500D03*
X0067250Y0008500D03*
X0072250Y0008500D03*
X0072250Y0013500D03*
D13*
X0035380Y0108500D03*
X0035380Y0113500D03*
X0035380Y0118500D03*
X0035380Y0123500D03*
X0014120Y0123500D03*
X0014120Y0118500D03*
X0014120Y0113500D03*
X0014120Y0108500D03*
D14*
X0016000Y0086000D03*
X0016000Y0016000D03*
D15*
X0009125Y0009125D03*
X0006000Y0016000D03*
X0009125Y0022875D03*
X0016000Y0026000D03*
X0022875Y0022875D03*
X0026000Y0016000D03*
X0022875Y0009125D03*
X0016000Y0006000D03*
X0016000Y0076000D03*
X0022875Y0079125D03*
X0026000Y0086000D03*
X0022875Y0092875D03*
X0016000Y0096000D03*
X0009125Y0092875D03*
X0006000Y0086000D03*
X0009125Y0079125D03*
D16*
X0007250Y0068500D02*
X0004750Y0066000D01*
X0004750Y0048293D01*
X0004957Y0048500D01*
X0013431Y0048500D01*
X0013431Y0053500D02*
X0022250Y0053500D01*
X0027250Y0058500D01*
X0036069Y0058500D01*
X0036069Y0063500D01*
X0046000Y0063500D01*
X0052250Y0069750D01*
X0068500Y0069750D01*
X0069750Y0071000D01*
X0069750Y0051000D02*
X0052250Y0051000D01*
X0048260Y0047010D01*
X0048260Y0048740D01*
X0043500Y0053500D01*
X0036069Y0053500D01*
X0036069Y0048500D02*
X0024750Y0048500D01*
X0022250Y0046000D01*
X0027250Y0038500D02*
X0032250Y0033500D01*
X0036069Y0033500D01*
X0048500Y0033500D01*
X0051000Y0031000D01*
X0069750Y0031000D01*
X0069750Y0011000D02*
X0045931Y0012250D01*
X0035931Y0022319D01*
X0024750Y0033500D01*
X0013431Y0033500D01*
X0007250Y0033500D01*
X0004750Y0036000D01*
X0004750Y0048293D01*
X0013431Y0043500D02*
X0013431Y0038500D01*
X0027250Y0038500D01*
X0036069Y0038500D02*
X0036069Y0043500D01*
X0044750Y0043500D01*
X0048260Y0047010D01*
X0036069Y0068500D02*
X0013431Y0068500D01*
X0007250Y0068500D01*
X0013431Y0063500D02*
X0013431Y0058500D01*
X0018500Y0058500D01*
X0022250Y0062250D01*
X0043500Y0091000D02*
X0035380Y0098500D01*
X0035380Y0108500D01*
X0027250Y0108500D01*
X0024750Y0111000D01*
X0024750Y0121000D01*
X0022250Y0123500D01*
X0014120Y0123500D01*
X0014120Y0118500D02*
X0014120Y0113500D01*
X0014120Y0118500D02*
X0009750Y0118500D01*
X0007250Y0121000D01*
X0007250Y0128500D01*
X0009750Y0131000D01*
X0035207Y0131000D01*
X0035380Y0130827D01*
X0035380Y0123500D01*
X0035380Y0118500D02*
X0035380Y0113500D01*
X0047752Y0113500D01*
X0051000Y0113500D01*
X0053500Y0111000D01*
X0069750Y0111000D01*
X0069750Y0091000D02*
X0043500Y0091000D01*
X0035207Y0131000D02*
X0069750Y0131000D01*
X0014120Y0108500D02*
X0013500Y0107880D01*
X0013500Y0104750D01*
D17*
X0013500Y0104750D03*
X0022250Y0062250D03*
X0022250Y0046000D03*
X0043500Y0091000D03*
X0047752Y0113500D03*
D18*
X0067250Y0128500D02*
X0069750Y0131000D01*
X0072250Y0128500D01*
X0069750Y0131000D02*
X0067250Y0133500D01*
X0069750Y0131000D02*
X0072250Y0133500D01*
M02*
