G75*
%MOIN*%
%OFA0B0*%
%FSLAX25Y25*%
%IPPOS*%
%LPD*%
%AMOC8*
5,1,8,0,0,1.08239X$1,22.5*
%
%ADD10R,0.04362X0.04362*%
%ADD11R,0.10000X0.10000*%
%ADD12OC8,0.25400*%
%ADD13OC8,0.04362*%
%ADD14C,0.00300*%
%ADD15C,0.02978*%
%ADD16C,0.02400*%
D10*
X0067250Y0008500D03*
X0067250Y0013500D03*
X0072250Y0013500D03*
X0072250Y0008500D03*
X0072250Y0028500D03*
X0072250Y0033500D03*
X0067250Y0033500D03*
X0067250Y0028500D03*
X0067250Y0048500D03*
X0067250Y0053500D03*
X0072250Y0053500D03*
X0072250Y0048500D03*
X0072250Y0068500D03*
X0072250Y0073500D03*
X0067250Y0073500D03*
X0067250Y0068500D03*
X0067250Y0088500D03*
X0067250Y0093500D03*
X0072250Y0093500D03*
X0072250Y0088500D03*
X0072250Y0108500D03*
X0072250Y0113500D03*
X0067250Y0113500D03*
X0067250Y0108500D03*
X0067250Y0128500D03*
X0067250Y0133500D03*
X0072250Y0133500D03*
X0072250Y0128500D03*
D11*
X0069750Y0131000D03*
X0069750Y0111000D03*
X0069750Y0091000D03*
X0069750Y0071000D03*
X0069750Y0051000D03*
X0069750Y0031000D03*
X0069750Y0011000D03*
D12*
X0016000Y0016000D03*
X0016000Y0086000D03*
D13*
X0009125Y0009125D03*
X0006000Y0016000D03*
X0009125Y0022875D03*
X0016000Y0026000D03*
X0022875Y0022875D03*
X0026000Y0016000D03*
X0022875Y0009125D03*
X0016000Y0006000D03*
X0016000Y0076000D03*
X0022875Y0079125D03*
X0026000Y0086000D03*
X0022875Y0092875D03*
X0016000Y0096000D03*
X0009125Y0092875D03*
X0006000Y0086000D03*
X0009125Y0079125D03*
D14*
X0067250Y0073500D02*
X0069702Y0071048D01*
X0067250Y0068596D01*
X0067250Y0068500D01*
X0069750Y0071000D02*
X0072250Y0068500D01*
X0069702Y0071048D02*
X0070148Y0071494D01*
X0072154Y0073500D01*
X0072250Y0073500D01*
X0069750Y0071000D02*
X0069702Y0071048D01*
X0067250Y0088500D02*
X0067250Y0088666D01*
X0069667Y0091083D01*
X0069750Y0091000D01*
X0072250Y0088500D01*
X0069667Y0091083D02*
X0069207Y0091543D01*
X0071164Y0093500D01*
X0072250Y0093500D01*
X0069207Y0091543D02*
X0067250Y0093500D01*
X0067250Y0108500D02*
X0067250Y0108552D01*
X0069724Y0111026D01*
X0069750Y0111000D01*
X0069724Y0111026D02*
X0069356Y0111394D01*
X0069964Y0112002D01*
X0072250Y0109716D01*
X0072250Y0108500D01*
X0069356Y0111394D02*
X0067250Y0113500D01*
X0069964Y0112002D02*
X0071462Y0113500D01*
X0072250Y0113500D01*
X0069750Y0131000D02*
X0067250Y0133500D01*
X0067250Y0053500D02*
X0069553Y0051197D01*
X0067250Y0048893D01*
X0067250Y0048500D01*
X0069750Y0051000D02*
X0072250Y0048500D01*
X0069553Y0051197D02*
X0070240Y0051883D01*
X0071857Y0053500D01*
X0072250Y0053500D01*
X0069750Y0051000D02*
X0069553Y0051197D01*
X0067250Y0033500D02*
X0069680Y0031070D01*
X0067250Y0028639D01*
X0067250Y0028500D01*
X0069750Y0031000D02*
X0072250Y0028500D01*
X0069750Y0031000D02*
X0069680Y0031070D01*
X0072111Y0033500D01*
X0072250Y0033500D01*
X0072250Y0013500D02*
X0069750Y0011000D01*
X0069722Y0010972D01*
X0072194Y0008500D01*
X0072250Y0008500D01*
X0069750Y0011000D02*
X0067250Y0013500D01*
X0069722Y0010972D02*
X0067250Y0008500D01*
D15*
X0022250Y0046000D03*
X0022250Y0062250D03*
X0043500Y0091000D03*
X0047752Y0113500D03*
X0013500Y0104750D03*
D16*
X0037250Y0104750D01*
X0039002Y0105252D01*
X0047752Y0113500D01*
X0043500Y0091000D02*
X0043500Y0084750D01*
X0022250Y0062250D01*
X0022250Y0046000D01*
M02*
