G75*
%MOIN*%
%OFA0B0*%
%FSLAX25Y25*%
%IPPOS*%
%LPD*%
%AMOC8*
5,1,8,0,0,1.08239X$1,22.5*
%
%ADD10C,0.00000*%
%ADD11C,0.00700*%
%ADD12C,0.00500*%
%ADD13C,0.00400*%
%ADD14C,0.00900*%
D10*
X0001000Y0001000D02*
X0001000Y0139711D01*
X0078451Y0139711D01*
X0078451Y0001000D01*
X0001000Y0001000D01*
D11*
X0035096Y0007600D02*
X0037965Y0007600D01*
X0039400Y0009035D01*
X0037965Y0010469D01*
X0035096Y0010469D01*
X0036531Y0012204D02*
X0035096Y0013638D01*
X0039400Y0013638D01*
X0039400Y0012204D02*
X0039400Y0015073D01*
X0039400Y0016808D02*
X0038683Y0016808D01*
X0038683Y0017525D01*
X0039400Y0017525D01*
X0039400Y0016808D01*
X0038683Y0019110D02*
X0035814Y0021979D01*
X0038683Y0021979D01*
X0039400Y0021262D01*
X0039400Y0019827D01*
X0038683Y0019110D01*
X0035814Y0019110D01*
X0035096Y0019827D01*
X0035096Y0021262D01*
X0035814Y0021979D01*
X0042596Y0022129D02*
X0042596Y0023564D01*
X0043314Y0024281D01*
X0044031Y0024281D01*
X0044748Y0023564D01*
X0045465Y0024281D01*
X0046183Y0024281D01*
X0046900Y0023564D01*
X0046900Y0022129D01*
X0046183Y0021412D01*
X0044748Y0022846D02*
X0044748Y0023564D01*
X0043314Y0021412D02*
X0042596Y0022129D01*
X0042596Y0019677D02*
X0046900Y0016808D01*
X0046900Y0015073D02*
X0046900Y0012204D01*
X0044031Y0015073D01*
X0043314Y0015073D01*
X0042596Y0014356D01*
X0042596Y0012921D01*
X0043314Y0012204D01*
X0042596Y0009035D02*
X0046900Y0009035D01*
X0046900Y0010469D02*
X0046900Y0007600D01*
X0044031Y0007600D02*
X0042596Y0009035D01*
X0046900Y0026016D02*
X0042596Y0028885D01*
X0043314Y0030620D02*
X0042596Y0031337D01*
X0042596Y0032771D01*
X0043314Y0033489D01*
X0044031Y0033489D01*
X0046900Y0030620D01*
X0046900Y0033489D01*
X0046183Y0035224D02*
X0043314Y0038093D01*
X0046183Y0038093D01*
X0046900Y0037375D01*
X0046900Y0035941D01*
X0046183Y0035224D01*
X0043314Y0035224D01*
X0042596Y0035941D01*
X0042596Y0037375D01*
X0043314Y0038093D01*
X0044031Y0039827D02*
X0042596Y0041262D01*
X0046900Y0041262D01*
X0046900Y0039827D02*
X0046900Y0042697D01*
X0046900Y0044431D02*
X0046183Y0044431D01*
X0043314Y0047301D01*
X0042596Y0047301D01*
X0042596Y0044431D01*
X0034564Y0080434D02*
X0033846Y0080434D01*
X0034564Y0080434D02*
X0035998Y0081869D01*
X0038150Y0081869D01*
X0035998Y0081869D02*
X0034564Y0083303D01*
X0033846Y0083303D01*
X0035281Y0085755D02*
X0035281Y0087190D01*
X0035998Y0087907D01*
X0038150Y0087907D01*
X0038150Y0085755D01*
X0037433Y0085038D01*
X0036715Y0085755D01*
X0036715Y0087907D01*
X0035281Y0089642D02*
X0035281Y0091794D01*
X0035998Y0092511D01*
X0037433Y0092511D01*
X0038150Y0091794D01*
X0038150Y0089642D01*
X0039585Y0089642D02*
X0035281Y0089642D01*
X0035998Y0094246D02*
X0037433Y0094246D01*
X0038150Y0094963D01*
X0038150Y0096398D01*
X0037433Y0097115D01*
X0035998Y0097115D01*
X0035281Y0096398D01*
X0035281Y0094963D01*
X0035998Y0094246D01*
D12*
X0031837Y0106354D02*
X0017663Y0106354D01*
X0017663Y0125646D01*
X0022309Y0125646D01*
X0022309Y0125528D01*
X0022311Y0125438D01*
X0022317Y0125348D01*
X0022326Y0125258D01*
X0022340Y0125169D01*
X0022357Y0125080D01*
X0022378Y0124992D01*
X0022402Y0124905D01*
X0022430Y0124820D01*
X0022462Y0124735D01*
X0022498Y0124652D01*
X0022537Y0124571D01*
X0022579Y0124491D01*
X0022625Y0124413D01*
X0022674Y0124337D01*
X0022726Y0124264D01*
X0022781Y0124192D01*
X0022839Y0124123D01*
X0022900Y0124057D01*
X0022964Y0123993D01*
X0023030Y0123932D01*
X0023099Y0123874D01*
X0023171Y0123819D01*
X0023244Y0123767D01*
X0023320Y0123718D01*
X0023398Y0123672D01*
X0023478Y0123630D01*
X0023559Y0123591D01*
X0023642Y0123555D01*
X0023727Y0123523D01*
X0023812Y0123495D01*
X0023899Y0123471D01*
X0023987Y0123450D01*
X0024076Y0123433D01*
X0024165Y0123419D01*
X0024255Y0123410D01*
X0024345Y0123404D01*
X0024435Y0123402D01*
X0024750Y0123402D01*
X0024843Y0123406D01*
X0024935Y0123415D01*
X0025027Y0123427D01*
X0025119Y0123443D01*
X0025209Y0123463D01*
X0025299Y0123487D01*
X0025387Y0123515D01*
X0025475Y0123546D01*
X0025561Y0123581D01*
X0025645Y0123620D01*
X0025728Y0123662D01*
X0025808Y0123708D01*
X0025887Y0123757D01*
X0025964Y0123810D01*
X0026038Y0123865D01*
X0026110Y0123924D01*
X0026179Y0123986D01*
X0026246Y0124050D01*
X0026309Y0124118D01*
X0026370Y0124188D01*
X0026428Y0124260D01*
X0026483Y0124335D01*
X0026535Y0124412D01*
X0026583Y0124492D01*
X0026628Y0124573D01*
X0026669Y0124656D01*
X0026707Y0124741D01*
X0026741Y0124827D01*
X0026771Y0124915D01*
X0026798Y0125004D01*
X0026821Y0125094D01*
X0026840Y0125184D01*
X0026855Y0125276D01*
X0026866Y0125368D01*
X0026873Y0125461D01*
X0026877Y0125553D01*
X0026876Y0125646D01*
X0031837Y0125646D01*
X0031837Y0106354D01*
X0015695Y0127024D02*
X0015697Y0127080D01*
X0015703Y0127135D01*
X0015713Y0127189D01*
X0015726Y0127243D01*
X0015744Y0127296D01*
X0015765Y0127347D01*
X0015789Y0127397D01*
X0015817Y0127445D01*
X0015849Y0127491D01*
X0015883Y0127535D01*
X0015921Y0127576D01*
X0015961Y0127614D01*
X0016004Y0127649D01*
X0016049Y0127681D01*
X0016097Y0127710D01*
X0016146Y0127736D01*
X0016197Y0127758D01*
X0016249Y0127776D01*
X0016303Y0127790D01*
X0016358Y0127801D01*
X0016413Y0127808D01*
X0016468Y0127811D01*
X0016524Y0127810D01*
X0016579Y0127805D01*
X0016634Y0127796D01*
X0016688Y0127784D01*
X0016741Y0127767D01*
X0016793Y0127747D01*
X0016843Y0127723D01*
X0016891Y0127696D01*
X0016938Y0127666D01*
X0016982Y0127632D01*
X0017024Y0127595D01*
X0017062Y0127555D01*
X0017099Y0127513D01*
X0017132Y0127468D01*
X0017161Y0127422D01*
X0017188Y0127373D01*
X0017210Y0127322D01*
X0017230Y0127270D01*
X0017245Y0127216D01*
X0017257Y0127162D01*
X0017265Y0127107D01*
X0017269Y0127052D01*
X0017269Y0126996D01*
X0017265Y0126941D01*
X0017257Y0126886D01*
X0017245Y0126832D01*
X0017230Y0126778D01*
X0017210Y0126726D01*
X0017188Y0126675D01*
X0017161Y0126626D01*
X0017132Y0126580D01*
X0017099Y0126535D01*
X0017062Y0126493D01*
X0017024Y0126453D01*
X0016982Y0126416D01*
X0016938Y0126382D01*
X0016891Y0126352D01*
X0016843Y0126325D01*
X0016793Y0126301D01*
X0016741Y0126281D01*
X0016688Y0126264D01*
X0016634Y0126252D01*
X0016579Y0126243D01*
X0016524Y0126238D01*
X0016468Y0126237D01*
X0016413Y0126240D01*
X0016358Y0126247D01*
X0016303Y0126258D01*
X0016249Y0126272D01*
X0016197Y0126290D01*
X0016146Y0126312D01*
X0016097Y0126338D01*
X0016049Y0126367D01*
X0016004Y0126399D01*
X0015961Y0126434D01*
X0015921Y0126472D01*
X0015883Y0126513D01*
X0015849Y0126557D01*
X0015817Y0126603D01*
X0015789Y0126651D01*
X0015765Y0126701D01*
X0015744Y0126752D01*
X0015726Y0126805D01*
X0015713Y0126859D01*
X0015703Y0126913D01*
X0015697Y0126968D01*
X0015695Y0127024D01*
X0017270Y0070685D02*
X0021994Y0070685D01*
X0017615Y0068323D02*
X0017617Y0068403D01*
X0017623Y0068483D01*
X0017633Y0068563D01*
X0017647Y0068642D01*
X0017664Y0068720D01*
X0017686Y0068798D01*
X0017711Y0068874D01*
X0017740Y0068949D01*
X0017773Y0069022D01*
X0017810Y0069094D01*
X0017849Y0069163D01*
X0017893Y0069231D01*
X0017939Y0069296D01*
X0017989Y0069359D01*
X0018042Y0069420D01*
X0018097Y0069478D01*
X0018156Y0069533D01*
X0018217Y0069585D01*
X0018281Y0069634D01*
X0018347Y0069679D01*
X0018415Y0069722D01*
X0018485Y0069761D01*
X0018557Y0069796D01*
X0018631Y0069828D01*
X0018706Y0069856D01*
X0018782Y0069881D01*
X0018860Y0069901D01*
X0018939Y0069918D01*
X0019018Y0069931D01*
X0019098Y0069940D01*
X0019178Y0069945D01*
X0019258Y0069946D01*
X0019338Y0069943D01*
X0019418Y0069936D01*
X0019498Y0069925D01*
X0019577Y0069910D01*
X0019655Y0069892D01*
X0019732Y0069869D01*
X0019808Y0069843D01*
X0019882Y0069813D01*
X0019955Y0069779D01*
X0020026Y0069742D01*
X0020095Y0069701D01*
X0020163Y0069657D01*
X0020227Y0069610D01*
X0020290Y0069559D01*
X0020350Y0069506D01*
X0020407Y0069449D01*
X0020461Y0069390D01*
X0020512Y0069328D01*
X0020560Y0069264D01*
X0020605Y0069197D01*
X0020647Y0069129D01*
X0020685Y0069058D01*
X0020720Y0068986D01*
X0020751Y0068911D01*
X0020778Y0068836D01*
X0020801Y0068759D01*
X0020821Y0068681D01*
X0020837Y0068603D01*
X0020849Y0068523D01*
X0020857Y0068443D01*
X0020861Y0068363D01*
X0020861Y0068283D01*
X0020857Y0068203D01*
X0020849Y0068123D01*
X0020837Y0068043D01*
X0020821Y0067965D01*
X0020801Y0067887D01*
X0020778Y0067810D01*
X0020751Y0067735D01*
X0020720Y0067660D01*
X0020685Y0067588D01*
X0020647Y0067517D01*
X0020605Y0067449D01*
X0020560Y0067382D01*
X0020512Y0067318D01*
X0020461Y0067256D01*
X0020407Y0067197D01*
X0020350Y0067140D01*
X0020290Y0067087D01*
X0020227Y0067036D01*
X0020163Y0066989D01*
X0020095Y0066945D01*
X0020026Y0066904D01*
X0019955Y0066867D01*
X0019882Y0066833D01*
X0019808Y0066803D01*
X0019732Y0066777D01*
X0019655Y0066754D01*
X0019577Y0066736D01*
X0019498Y0066721D01*
X0019418Y0066710D01*
X0019338Y0066703D01*
X0019258Y0066700D01*
X0019178Y0066701D01*
X0019098Y0066706D01*
X0019018Y0066715D01*
X0018939Y0066728D01*
X0018860Y0066745D01*
X0018782Y0066765D01*
X0018706Y0066790D01*
X0018631Y0066818D01*
X0018557Y0066850D01*
X0018485Y0066885D01*
X0018415Y0066924D01*
X0018347Y0066967D01*
X0018281Y0067012D01*
X0018217Y0067061D01*
X0018156Y0067113D01*
X0018097Y0067168D01*
X0018042Y0067226D01*
X0017989Y0067287D01*
X0017939Y0067350D01*
X0017893Y0067415D01*
X0017849Y0067483D01*
X0017810Y0067552D01*
X0017773Y0067624D01*
X0017740Y0067697D01*
X0017711Y0067772D01*
X0017686Y0067848D01*
X0017664Y0067926D01*
X0017647Y0068004D01*
X0017633Y0068083D01*
X0017623Y0068163D01*
X0017617Y0068243D01*
X0017615Y0068323D01*
X0017073Y0070488D02*
X0017073Y0031512D01*
X0032427Y0031512D01*
X0032427Y0070488D01*
X0032230Y0070685D02*
X0027900Y0070685D01*
X0027898Y0070577D01*
X0027892Y0070469D01*
X0027882Y0070362D01*
X0027869Y0070255D01*
X0027851Y0070149D01*
X0027829Y0070043D01*
X0027804Y0069938D01*
X0027775Y0069834D01*
X0027742Y0069732D01*
X0027705Y0069630D01*
X0027665Y0069530D01*
X0027621Y0069432D01*
X0027573Y0069335D01*
X0027522Y0069240D01*
X0027468Y0069147D01*
X0027410Y0069056D01*
X0027349Y0068967D01*
X0027284Y0068880D01*
X0027217Y0068796D01*
X0027146Y0068714D01*
X0027073Y0068635D01*
X0026997Y0068559D01*
X0026918Y0068486D01*
X0026836Y0068415D01*
X0026752Y0068348D01*
X0026665Y0068283D01*
X0026576Y0068222D01*
X0026485Y0068164D01*
X0026392Y0068110D01*
X0026297Y0068059D01*
X0026200Y0068011D01*
X0026102Y0067967D01*
X0026002Y0067927D01*
X0025900Y0067890D01*
X0025798Y0067857D01*
X0025694Y0067828D01*
X0025589Y0067803D01*
X0025483Y0067781D01*
X0025377Y0067763D01*
X0025270Y0067750D01*
X0025163Y0067740D01*
X0025055Y0067734D01*
X0024947Y0067732D01*
X0024839Y0067734D01*
X0024731Y0067740D01*
X0024624Y0067750D01*
X0024517Y0067763D01*
X0024411Y0067781D01*
X0024305Y0067803D01*
X0024200Y0067828D01*
X0024096Y0067857D01*
X0023994Y0067890D01*
X0023892Y0067927D01*
X0023792Y0067967D01*
X0023694Y0068011D01*
X0023597Y0068059D01*
X0023502Y0068110D01*
X0023409Y0068164D01*
X0023318Y0068222D01*
X0023229Y0068283D01*
X0023142Y0068348D01*
X0023058Y0068415D01*
X0022976Y0068486D01*
X0022897Y0068559D01*
X0022821Y0068635D01*
X0022748Y0068714D01*
X0022677Y0068796D01*
X0022610Y0068880D01*
X0022545Y0068967D01*
X0022484Y0069056D01*
X0022426Y0069147D01*
X0022372Y0069240D01*
X0022321Y0069335D01*
X0022273Y0069432D01*
X0022229Y0069530D01*
X0022189Y0069630D01*
X0022152Y0069732D01*
X0022119Y0069834D01*
X0022090Y0069938D01*
X0022065Y0070043D01*
X0022043Y0070149D01*
X0022025Y0070255D01*
X0022012Y0070362D01*
X0022002Y0070469D01*
X0021996Y0070577D01*
X0021994Y0070685D01*
D13*
X0008300Y0069665D02*
X0008300Y0066596D01*
X0005231Y0069665D01*
X0004463Y0069665D01*
X0003696Y0068898D01*
X0003696Y0067363D01*
X0004463Y0066596D01*
X0004463Y0065061D02*
X0003696Y0064294D01*
X0003696Y0062759D01*
X0004463Y0061992D01*
X0004463Y0060457D02*
X0003696Y0059690D01*
X0003696Y0058155D01*
X0004463Y0057388D01*
X0007533Y0057388D01*
X0004463Y0060457D01*
X0007533Y0060457D01*
X0008300Y0059690D01*
X0008300Y0058155D01*
X0007533Y0057388D01*
X0007533Y0055853D02*
X0008300Y0055086D01*
X0008300Y0053552D01*
X0007533Y0052784D01*
X0004463Y0055853D01*
X0007533Y0055853D01*
X0007533Y0052784D02*
X0004463Y0052784D01*
X0003696Y0053552D01*
X0003696Y0055086D01*
X0004463Y0055853D01*
X0003696Y0049715D02*
X0008300Y0049715D01*
X0008300Y0048180D02*
X0008300Y0051250D01*
X0005231Y0048180D02*
X0003696Y0049715D01*
X0004463Y0046646D02*
X0003696Y0045878D01*
X0003696Y0044344D01*
X0004463Y0043576D01*
X0005231Y0043576D01*
X0005998Y0044344D01*
X0005998Y0045878D01*
X0006765Y0046646D01*
X0007533Y0046646D01*
X0008300Y0045878D01*
X0008300Y0044344D01*
X0007533Y0043576D01*
X0006765Y0043576D01*
X0005998Y0044344D01*
X0005998Y0045878D02*
X0005231Y0046646D01*
X0004463Y0046646D01*
X0004463Y0042042D02*
X0003696Y0041274D01*
X0003696Y0038972D01*
X0008300Y0038972D01*
X0008300Y0041274D01*
X0007533Y0042042D01*
X0004463Y0042042D01*
X0008300Y0037438D02*
X0008300Y0034369D01*
X0003696Y0034369D01*
X0005231Y0032834D02*
X0003696Y0031299D01*
X0005231Y0029765D01*
X0008300Y0029765D01*
X0008300Y0032834D02*
X0005231Y0032834D01*
X0005998Y0032834D02*
X0005998Y0029765D01*
X0008300Y0061992D02*
X0005231Y0065061D01*
X0004463Y0065061D01*
X0008300Y0065061D02*
X0008300Y0061992D01*
X0007248Y0097265D02*
X0007248Y0100334D01*
X0006481Y0100334D02*
X0009550Y0100334D01*
X0009550Y0101869D02*
X0009550Y0104938D01*
X0009550Y0106472D02*
X0009550Y0108774D01*
X0008783Y0109542D01*
X0005713Y0109542D01*
X0004946Y0108774D01*
X0004946Y0106472D01*
X0009550Y0106472D01*
X0008783Y0111076D02*
X0009550Y0111844D01*
X0009550Y0113378D01*
X0008783Y0114146D01*
X0005713Y0114146D01*
X0004946Y0113378D01*
X0004946Y0111844D01*
X0005713Y0111076D01*
X0006481Y0111076D01*
X0007248Y0111844D01*
X0007248Y0114146D01*
X0006481Y0115680D02*
X0004946Y0117215D01*
X0009550Y0117215D01*
X0009550Y0115680D02*
X0009550Y0118750D01*
X0008783Y0120284D02*
X0005713Y0123353D01*
X0008783Y0123353D01*
X0009550Y0122586D01*
X0009550Y0121052D01*
X0008783Y0120284D01*
X0005713Y0120284D01*
X0004946Y0121052D01*
X0004946Y0122586D01*
X0005713Y0123353D01*
X0005713Y0124888D02*
X0004946Y0125655D01*
X0004946Y0127190D01*
X0005713Y0127957D01*
X0008783Y0124888D01*
X0009550Y0125655D01*
X0009550Y0127190D01*
X0008783Y0127957D01*
X0005713Y0127957D01*
X0005713Y0129492D02*
X0004946Y0130259D01*
X0004946Y0131794D01*
X0005713Y0132561D01*
X0006481Y0132561D01*
X0009550Y0129492D01*
X0009550Y0132561D01*
X0009550Y0134096D02*
X0006481Y0137165D01*
X0005713Y0137165D01*
X0004946Y0136398D01*
X0004946Y0134863D01*
X0005713Y0134096D01*
X0009550Y0134096D02*
X0009550Y0137165D01*
X0008783Y0124888D02*
X0005713Y0124888D01*
X0004946Y0101869D02*
X0009550Y0101869D01*
X0009550Y0097265D02*
X0006481Y0097265D01*
X0004946Y0098799D01*
X0006481Y0100334D01*
D14*
X0049809Y0073055D02*
X0049809Y0068985D01*
X0051844Y0066950D01*
X0053879Y0068985D01*
X0053879Y0073055D01*
X0056254Y0072038D02*
X0057272Y0073055D01*
X0059307Y0073055D01*
X0060325Y0072038D01*
X0060325Y0071020D01*
X0059307Y0070003D01*
X0060325Y0068985D01*
X0060325Y0067968D01*
X0059307Y0066950D01*
X0057272Y0066950D01*
X0056254Y0067968D01*
X0058290Y0070003D02*
X0059307Y0070003D01*
X0059307Y0053055D02*
X0056254Y0050003D01*
X0060325Y0050003D01*
X0059307Y0053055D02*
X0059307Y0046950D01*
X0053879Y0048985D02*
X0053879Y0053055D01*
X0053879Y0048985D02*
X0051844Y0046950D01*
X0049809Y0048985D01*
X0049809Y0053055D01*
X0049809Y0033055D02*
X0049809Y0028985D01*
X0051844Y0026950D01*
X0053879Y0028985D01*
X0053879Y0033055D01*
X0056254Y0033055D02*
X0056254Y0030003D01*
X0058290Y0031020D01*
X0059307Y0031020D01*
X0060325Y0030003D01*
X0060325Y0027968D01*
X0059307Y0026950D01*
X0057272Y0026950D01*
X0056254Y0027968D01*
X0056254Y0033055D02*
X0060325Y0033055D01*
X0056379Y0014305D02*
X0056379Y0010235D01*
X0054344Y0008200D01*
X0052309Y0010235D01*
X0052309Y0014305D01*
X0058754Y0011253D02*
X0062825Y0011253D01*
X0061575Y0086950D02*
X0057504Y0086950D01*
X0061575Y0091020D01*
X0061575Y0092038D01*
X0060557Y0093055D01*
X0058522Y0093055D01*
X0057504Y0092038D01*
X0055129Y0093055D02*
X0055129Y0088985D01*
X0053094Y0086950D01*
X0051059Y0088985D01*
X0051059Y0093055D01*
X0053094Y0106950D02*
X0055129Y0108985D01*
X0055129Y0113055D01*
X0057504Y0111020D02*
X0059540Y0113055D01*
X0059540Y0106950D01*
X0061575Y0106950D02*
X0057504Y0106950D01*
X0053094Y0106950D02*
X0051059Y0108985D01*
X0051059Y0113055D01*
X0051844Y0126950D02*
X0053879Y0128985D01*
X0053879Y0133055D01*
X0056254Y0130003D02*
X0060325Y0130003D01*
X0058290Y0132038D02*
X0058290Y0127968D01*
X0051844Y0126950D02*
X0049809Y0128985D01*
X0049809Y0133055D01*
M02*
