%
M48
M72
T01C0.0138
T02C0.0236
T03C0.1300
%
T01
X2225Y4600
X2225Y6225
X4350Y9100
X4775Y11350
X1350Y10475
T02
X913Y913
X600Y1600
X913Y2288
X1600Y2600
X2288Y2288
X2600Y1600
X2288Y913
X1600Y600
X1600Y7600
X2288Y7913
X2600Y8600
X2288Y9288
X1600Y9600
X913Y9288
X600Y8600
X913Y7913
X6725Y7350
X6725Y6850
X7225Y6850
X7225Y7350
X7225Y8850
X7225Y9350
X6725Y9350
X6725Y8850
X6725Y10850
X6725Y11350
X7225Y11350
X7225Y10850
X7225Y12850
X7225Y13350
X6725Y13350
X6725Y12850
X6725Y5350
X6725Y4850
X7225Y4850
X7225Y5350
X7225Y3350
X7225Y2850
X6725Y2850
X6725Y3350
X6725Y1350
X6725Y850
X7225Y850
X7225Y1350
T03
X1600Y1600
X1600Y8600
M30
